<svg width="512" height="512" viewBox="0 0 512 512" fill="none" xmlns="http://www.w3.org/2000/svg">
<rect x="82" y="83" width="332" height="347" fill="white"/>
<path d="M134.47 145.974L134.47 145.974C148.967 124.303 165.951 106.621 187.218 94.432C208.56 82.2008 233.348 76 262.655 76C294.285 76 326.531 88.2597 350.975 108.457C375.479 128.703 393.186 157.884 393.186 192C393.186 213.995 387.18 231.283 377.739 245.068C368.454 258.624 356.334 268.078 345.208 275.29C339.827 278.779 334.482 281.863 329.773 284.58L329.319 284.843C324.344 287.714 320.27 290.083 316.884 292.391C313.453 294.73 311.572 296.456 310.6 297.699C310.167 298.252 310.036 298.559 310.008 298.632C310 298.653 309.999 298.655 309.999 298.657C309.999 298.658 310 298.659 310 298.667V300C310 314.359 298.359 326 284 326H271.397C297.052 332.81 316 356.224 316 384C316 417.096 289.097 444 256 444C222.903 444 196 417.096 196 384C196 356.224 214.948 332.81 240.603 326H228C213.641 326 202 314.359 202 300V296C202 247.57 238.593 227.18 261.242 214.561C262.118 214.072 262.974 213.596 263.805 213.129L134.47 145.974ZM134.47 145.974C126.829 157.396 129.368 172.835 140.362 181.171L140.362 181.172M134.47 145.974L140.362 181.172M140.362 181.172L175.061 207.481M140.362 181.172L175.061 207.481M175.061 207.481C186.329 216.026 202.4 214.009 211.18 202.871C220.222 191.402 226.601 184.039 233.395 179.259C239.523 174.948 246.512 172.407 257.488 172.407C265.033 172.407 273.802 174.93 280.371 179.197C287.048 183.535 289.186 187.99 289.186 191.365C289.186 194.092 288.422 196.253 284.96 199.466C280.793 203.333 274.214 207.294 263.806 213.129L175.061 207.481ZM490 256C490 385.264 385.226 490 256 490C126.774 490 22 385.264 22 256C22 126.814 126.776 22 256 22C385.224 22 490 126.814 490 256Z" fill="#00C2FF" stroke="#0C8BCC" stroke-width="28"/>
</svg>
