<svg width="512" height="512" viewBox="0 0 512 512" fill="none" xmlns="http://www.w3.org/2000/svg">
<rect x="82" y="83" width="332" height="347" fill="#0C8BCC"/>
<path d="M146.106 153.758L139.872 149.588C153.975 128.507 170.276 111.634 190.45 100.072C210.665 88.4865 234.304 82.5 262.655 82.5C292.685 82.5 323.485 94.1746 346.835 113.468C370.217 132.787 386.686 160.259 386.686 192C386.686 212.723 381.055 228.724 372.376 241.395C363.781 253.944 352.461 262.843 341.673 269.836C336.436 273.231 331.218 276.242 326.483 278.975L326.07 279.213C321.142 282.057 316.847 284.55 313.223 287.021C305.542 292.258 303.5 295.695 303.5 298.667V300C303.5 310.769 294.769 319.5 284 319.5H228C217.231 319.5 208.5 310.769 208.5 300V296C208.5 251.457 241.865 232.827 264.755 220.045C265.51 219.624 266.254 219.208 266.985 218.799C277.243 213.048 284.544 208.72 289.381 204.231C293.842 200.091 295.686 196.302 295.686 191.365C295.686 184.958 291.607 178.746 283.912 173.746C276.274 168.784 266.272 165.907 257.488 165.907C245.296 165.907 236.974 168.793 229.655 173.943C221.979 179.344 215.066 187.443 206.075 198.847L146.106 153.758ZM146.106 153.758L139.872 149.588C134.137 158.161 136.047 169.742 144.289 175.992L144.29 175.992M146.106 153.758L144.29 175.992M144.29 175.992L178.988 202.302M144.29 175.992L178.988 202.302M178.988 202.302C187.441 208.712 199.493 207.196 206.075 198.848L178.988 202.302ZM496.5 256C496.5 388.854 388.816 496.5 256 496.5C123.184 496.5 15.5 388.854 15.5 256C15.5 123.224 123.186 15.5 256 15.5C388.814 15.5 496.5 123.224 496.5 256ZM256 330.5C226.493 330.5 202.5 354.493 202.5 384C202.5 413.506 226.493 437.5 256 437.5C285.507 437.5 309.5 413.506 309.5 384C309.5 354.493 285.507 330.5 256 330.5Z" fill="#00C2FF" stroke="#0C8BCC" stroke-width="15"/>
</svg>
